<?xml version="1.0" standalone="no"?>
<!DOCTYPE svg PUBLIC "-//W3C//DTD SVG 20010904//EN"
 "http://www.w3.org/TR/2001/REC-SVG-20010904/DTD/svg10.dtd">
<svg version="1.0" xmlns="http://www.w3.org/2000/svg"
 width="512.000000pt" height="512.000000pt" viewBox="0 0 512.000000 512.000000"
 preserveAspectRatio="xMidYMid meet">
<metadata>
Created by potrace 1.16, written by Peter Selinger 2001-2019
</metadata>
<g transform="translate(0.000000,512.000000) scale(0.100000,-0.100000)"
fill="#000000" stroke="none">
<path d="M768 5101 c-162 -52 -289 -181 -341 -346 l-22 -70 0 -2125 0 -2125
22 -70 c52 -165 181 -296 341 -345 63 -20 97 -20 1792 -20 1695 0 1729 0 1792
20 160 49 289 180 341 345 l22 70 0 2125 0 2125 -22 70 c-52 165 -181 296
-342 345 -62 20 -101 20 -1795 19 -1647 0 -1734 -1 -1788 -18z m3556 -221 c62
-32 114 -84 146 -146 l25 -49 0 -2125 0 -2125 -25 -49 c-32 -62 -84 -114 -146
-146 l-49 -25 -1715 0 -1715 0 -49 25 c-62 32 -114 84 -146 146 l-25 49 -3
2100 c-2 1479 1 2113 8 2144 23 94 117 192 210 219 23 7 630 10 1735 9 l1700
-2 49 -25z"/>
<path d="M1937 4500 c-98 -25 -190 -102 -235 -198 -24 -50 -27 -69 -27 -157 0
-95 2 -104 37 -178 22 -45 58 -100 88 -131 l51 -54 -38 -12 c-215 -70 -406
-268 -429 -446 -6 -48 -5 -51 30 -82 79 -69 289 -106 611 -106 302 0 507 32
601 96 42 28 49 52 35 120 -19 87 -60 156 -146 244 -69 69 -96 89 -185 133
-58 28 -111 51 -119 51 -8 0 8 24 35 53 62 65 87 105 113 184 24 71 28 173 9
237 -16 55 -67 135 -109 170 -80 68 -221 101 -322 76z m133 -795 l-23 -24 72
-172 c39 -94 71 -176 71 -182 0 -7 -37 -49 -82 -94 l-83 -83 -82 82 c-46 46
-83 87 -83 92 0 5 32 87 72 183 67 163 70 174 55 191 -10 10 -17 22 -17 25 0
4 28 7 62 7 l61 0 -23 -25z"/>
<path d="M1455 2883 c-54 -13 -83 -72 -65 -128 23 -70 -61 -65 1170 -65 1231
0 1147 -5 1170 65 14 42 5 77 -27 107 l-25 23 -1101 1 c-606 1 -1111 0 -1122
-3z"/>
<path d="M1455 2453 c-29 -7 -62 -41 -70 -70 -9 -38 13 -91 45 -108 25 -13
177 -15 1130 -15 1218 0 1147 -4 1170 64 14 43 5 78 -27 108 l-25 23 -1101 1
c-606 1 -1111 0 -1122 -3z"/>
<path d="M1450 2023 c-28 -10 -59 -45 -65 -74 -9 -41 20 -95 57 -108 21 -8
372 -11 1120 -11 1205 0 1145 -3 1167 63 15 44 6 78 -26 109 l-25 23 -1106 2
c-609 1 -1114 -1 -1122 -4z"/>
<path d="M2508 1585 c-30 -17 -52 -71 -43 -108 4 -14 18 -36 32 -49 l25 -23
578 0 578 0 25 23 c32 30 41 65 27 108 -22 65 -7 64 -632 64 -472 -1 -567 -3
-590 -15z"/>
<path d="M2816 724 c-36 -37 -37 -104 -1 -139 l24 -25 419 0 c407 0 420 1 445
20 49 39 41 131 -12 160 -13 6 -169 10 -434 10 l-414 0 -27 -26z"/>
</g>
</svg>
