<?xml version="1.0" standalone="no"?>
<!DOCTYPE svg PUBLIC "-//W3C//DTD SVG 20010904//EN"
 "http://www.w3.org/TR/2001/REC-SVG-20010904/DTD/svg10.dtd">
<svg version="1.0" xmlns="http://www.w3.org/2000/svg"
 width="512.000000pt" height="512.000000pt" viewBox="0 0 512.000000 512.000000"
 preserveAspectRatio="xMidYMid meet">
<metadata>
Created by potrace 1.16, written by Peter Selinger 2001-2019
</metadata>
<g transform="translate(0.000000,512.000000) scale(0.100000,-0.100000)"
fill="#000000" stroke="none">
<path d="M4157 4864 c-213 -51 -405 -244 -461 -460 -19 -72 -21 -228 -5 -306
16 -77 90 -225 144 -286 81 -91 227 -176 343 -201 67 -14 215 -14 284 0 29 6
95 31 147 56 122 58 217 150 279 269 52 102 72 183 72 304 0 121 -20 202 -72
303 -81 155 -243 282 -409 322 -80 18 -244 18 -322 -1z m243 -268 c0 -38 3
-45 28 -55 16 -7 49 -32 73 -57 l43 -44 -34 -36 c-19 -20 -48 -45 -63 -56
l-29 -20 -39 37 c-35 35 -41 37 -64 27 -47 -21 -22 -72 35 -72 60 0 136 -68
160 -144 23 -73 -12 -178 -75 -219 -32 -20 -35 -26 -35 -69 l0 -48 -80 0 -80
0 0 44 c0 38 -3 45 -28 55 -16 7 -49 32 -72 56 l-44 45 25 26 c13 14 41 40 62
56 l38 31 39 -38 c36 -35 42 -37 65 -27 32 15 33 49 3 61 -13 5 -43 14 -68 21
-87 23 -152 128 -135 217 11 58 42 111 80 136 32 20 35 26 35 70 l0 47 80 0
80 0 0 -44z"/>
<path d="M2900 4300 c-20 -20 -20 -33 -20 -840 l0 -820 -240 0 -240 0 0 79 c0
74 -2 81 -26 100 -22 17 -41 21 -105 21 -76 0 -81 2 -114 33 -32 30 -40 53
-37 103 1 12 29 52 62 88 91 101 92 97 -97 288 -196 197 -202 199 -290 115
-91 -86 -142 -96 -199 -36 -27 28 -29 37 -32 117 -6 137 6 132 -282 132 -286
0 -272 7 -280 -131 -6 -82 -8 -92 -35 -119 -29 -27 -53 -35 -101 -32 -12 1
-52 29 -88 62 -101 91 -97 92 -288 -97 -198 -198 -199 -200 -110 -296 68 -73
81 -109 58 -159 -25 -51 -62 -68 -149 -68 -60 0 -79 -4 -101 -21 l-26 -20 0
-239 0 -239 26 -20 c22 -17 41 -21 105 -21 76 0 81 -2 114 -32 32 -31 40 -54
37 -104 -1 -12 -29 -52 -62 -88 -91 -101 -92 -97 98 -288 195 -197 201 -199
289 -115 91 86 142 96 199 36 27 -28 29 -37 32 -117 6 -138 -6 -132 283 -132
l238 0 20 26 c17 22 21 41 21 101 0 89 16 124 65 147 47 23 88 10 141 -45 21
-22 51 -47 66 -55 59 -31 72 -24 231 134 82 81 155 160 163 175 22 41 10 77
-42 128 -75 72 -89 115 -57 170 25 42 69 59 155 59 65 0 77 3 96 23 19 20 22
35 22 100 l0 77 240 0 240 0 0 -820 c0 -807 0 -820 20 -840 19 -19 33 -20 360
-20 l340 0 0 80 0 80 -280 0 -280 0 0 760 0 760 280 0 280 0 0 80 0 80 -280 0
-280 0 0 760 0 760 280 0 280 0 0 80 0 80 -340 0 c-327 0 -341 -1 -360 -20z
m-1505 -1115 c54 -9 110 -29 171 -59 155 -77 261 -201 321 -375 23 -65 27 -93
27 -191 0 -103 -3 -124 -30 -201 -34 -97 -104 -209 -164 -263 -22 -20 -43 -36
-48 -36 -4 0 -18 21 -32 48 -14 26 -61 83 -105 128 -93 94 -154 124 -255 124
-101 0 -162 -30 -255 -124 -44 -45 -91 -102 -105 -128 -14 -27 -28 -48 -32
-48 -19 0 -92 79 -138 147 -74 111 -103 209 -103 353 -1 100 3 126 27 195 59
171 165 294 321 371 137 68 252 85 400 59z"/>
<path d="M4240 2480 l0 -240 80 0 80 0 0 240 0 240 -80 0 -80 0 0 -240z"/>
<path d="M4265 1415 c-22 -21 -25 -33 -25 -95 0 -62 3 -74 25 -95 15 -16 36
-25 55 -25 19 0 40 9 55 25 22 21 25 33 25 95 0 62 -3 74 -25 95 -15 16 -36
25 -55 25 -19 0 -40 -9 -55 -25z"/>
<path d="M4077 1122 l-57 -58 70 -69 c67 -66 70 -72 70 -116 0 -121 143 -202
241 -136 45 30 79 83 79 121 0 28 11 40 104 111 58 43 102 84 98 89 -17 29
-85 116 -91 116 -4 0 -50 -33 -104 -74 l-98 -74 -57 5 c-54 5 -60 8 -127 74
l-71 69 -57 -58z"/>
<path d="M3785 935 c-16 -15 -25 -36 -25 -55 0 -19 9 -40 25 -55 21 -22 33
-25 95 -25 62 0 74 3 95 25 16 15 25 36 25 55 0 19 -9 40 -25 55 -21 22 -33
25 -95 25 -62 0 -74 -3 -95 -25z"/>
<path d="M4665 935 c-16 -15 -25 -36 -25 -55 0 -19 9 -40 25 -55 21 -22 33
-25 95 -25 62 0 74 3 95 25 16 15 25 36 25 55 0 19 -9 40 -25 55 -21 22 -33
25 -95 25 -62 0 -74 -3 -95 -25z"/>
<path d="M4265 535 c-22 -21 -25 -33 -25 -95 0 -62 3 -74 25 -95 15 -16 36
-25 55 -25 19 0 40 9 55 25 22 21 25 33 25 95 0 62 -3 74 -25 95 -15 16 -36
25 -55 25 -19 0 -40 -9 -55 -25z"/>
</g>
</svg>
