<?xml version="1.0" standalone="no"?>
<!DOCTYPE svg PUBLIC "-//W3C//DTD SVG 20010904//EN"
 "http://www.w3.org/TR/2001/REC-SVG-20010904/DTD/svg10.dtd">
<svg version="1.0" xmlns="http://www.w3.org/2000/svg"
 width="512.000000pt" height="512.000000pt" viewBox="0 0 512.000000 512.000000"
 preserveAspectRatio="xMidYMid meet">
<metadata>
Created by potrace 1.16, written by Peter Selinger 2001-2019
</metadata>
<g transform="translate(0.000000,512.000000) scale(0.100000,-0.100000)"
fill="#000000" stroke="none">
<path d="M261 3303 c-1 -10 -34 -13 -131 -13 l-130 0 0 -1279 c0 -1256 0
-1279 20 -1303 10 -14 32 -30 47 -37 21 -8 270 -11 945 -9 l918 3 32 33 33 32
3 1280 2 1280 -138 0 c-135 0 -138 0 -139 -22 -1 -13 -7 -32 -12 -43 -6 -11
-38 -121 -72 -245 -33 -124 -65 -232 -70 -241 -20 -38 -49 -40 -586 -37 -513
3 -523 3 -543 24 -14 13 -37 81 -70 197 -27 97 -60 214 -74 259 -14 46 -27 94
-29 108 -2 14 -5 19 -6 13z m1048 -798 c48 -24 56 -81 16 -120 l-24 -25 -306
0 c-290 0 -306 1 -325 20 -42 42 -31 108 23 130 12 5 149 9 305 9 230 1 288
-2 311 -14z m16 -300 c40 -39 32 -96 -16 -120 -23 -12 -83 -15 -319 -15 l-292
0 -29 29 c-31 32 -35 50 -17 84 24 46 28 46 346 47 l303 0 24 -25z m4 -291
c31 -39 27 -77 -10 -108 l-31 -26 -283 0 c-156 0 -295 4 -309 10 -57 21 -70
86 -26 130 19 19 35 20 329 20 l310 0 20 -26z m-195 -348 c105 -51 167 -146
174 -267 4 -68 1 -84 -22 -135 -52 -115 -148 -183 -267 -192 -151 -11 -279 79
-323 228 -20 67 -20 102 -1 166 56 191 265 285 439 200z"/>
<path d="M935 1426 c-70 -31 -109 -118 -85 -190 13 -40 68 -93 106 -102 38
-10 104 2 133 23 80 59 80 197 -2 255 -36 26 -111 33 -152 14z"/>
<path d="M436 3288 c2 -3 13 -39 23 -80 10 -40 36 -135 56 -211 l38 -137 445
2 446 3 8 30 c5 17 28 104 52 195 24 91 47 173 51 182 7 17 -26 18 -558 20
-311 2 -563 0 -561 -4z"/>
<path d="M2166 3259 c-3 -17 -6 -319 -6 -670 l0 -639 1345 0 1345 0 0 368 c0
203 -3 504 -7 670 l-6 302 -1332 0 -1332 0 -7 -31z"/>
<path d="M5010 2620 l0 -670 55 0 55 0 0 670 0 670 -55 0 -55 0 0 -670z"/>
<path d="M2160 1620 l0 -170 1435 0 c1254 0 1440 2 1465 15 54 28 60 47 60
192 l0 133 -1480 0 -1480 0 0 -170z m1115 55 c16 -15 25 -36 25 -55 0 -38 -39
-80 -74 -80 -39 0 -79 41 -79 80 0 24 7 40 27 57 35 30 71 29 101 -2z"/>
<path d="M2997 1217 c-21 -39 -65 -108 -98 -152 l-59 -80 189 -3 c104 -1 277
-1 384 0 l195 3 -58 80 c-32 43 -76 112 -97 152 l-38 73 -190 0 -190 0 -38
-73z"/>
<path d="M2576 799 c-23 -18 -26 -28 -26 -80 l0 -59 675 0 675 0 0 55 c0 46
-4 60 -25 80 l-24 25 -624 0 c-616 0 -625 0 -651 -21z"/>
</g>
</svg>
