<?xml version="1.0" standalone="no"?>
<!DOCTYPE svg PUBLIC "-//W3C//DTD SVG 20010904//EN"
 "http://www.w3.org/TR/2001/REC-SVG-20010904/DTD/svg10.dtd">
<svg version="1.0" xmlns="http://www.w3.org/2000/svg"
 width="512.000000pt" height="512.000000pt" viewBox="0 0 512.000000 512.000000"
 preserveAspectRatio="xMidYMid meet">
<metadata>
Created by potrace 1.16, written by Peter Selinger 2001-2019
</metadata>
<g transform="translate(0.000000,512.000000) scale(0.100000,-0.100000)"
fill="#000000" stroke="none">
<path d="M3690 4747 l-25 -13 -3 -1336 -2 -1336 -83 -56 c-213 -141 -357 -373
-392 -629 l-6 -47 -1492 0 c-1668 0 -1537 6 -1537 -70 0 -29 5 -42 19 -50 13
-7 503 -10 1514 -10 l1494 0 13 -76 c24 -152 83 -288 177 -412 290 -380 843
-459 1238 -177 76 54 188 173 233 249 93 152 132 297 132 484 0 305 -149 582
-399 742 l-70 45 0 1328 -1 1328 -25 24 -24 25 -368 0 c-277 0 -374 -3 -393
-13z m680 -1375 l0 -1258 -72 18 c-140 36 -338 33 -485 -8 l-23 -6 0 1256 0
1256 290 0 290 0 0 -1258z m-59 -1382 c256 -86 444 -286 509 -544 24 -96 27
-262 5 -354 -35 -146 -112 -279 -224 -385 -235 -222 -576 -275 -856 -135 -287
144 -452 426 -432 741 11 187 83 344 222 483 166 168 340 238 571 230 91 -4
127 -10 205 -36z"/>
<path d="M3980 1901 c-76 -24 -146 -85 -187 -164 -22 -43 -27 -65 -27 -132 -1
-82 11 -126 47 -178 10 -16 18 -29 16 -30 -2 -2 -22 -9 -44 -16 -87 -30 -155
-95 -198 -189 -18 -40 -22 -70 -25 -203 -5 -176 4 -210 62 -252 31 -22 33 -22
451 -22 467 0 452 -2 496 68 18 29 20 46 17 202 -3 156 -5 174 -28 220 -34 70
-114 147 -175 170 -28 10 -52 20 -54 22 -2 1 9 26 24 55 22 41 29 69 33 128 7
135 -53 241 -170 299 -53 27 -71 31 -137 30 -42 0 -87 -4 -101 -8z m204 -154
c109 -84 97 -240 -24 -311 -74 -44 -180 -15 -235 63 -25 36 -30 52 -30 100 1
70 29 120 88 156 58 36 148 32 201 -8z m155 -496 c49 -26 97 -81 111 -128 6
-22 10 -90 8 -158 l-3 -120 -57 -3 -56 -3 -4 100 c-3 112 -15 134 -67 134 -54
0 -61 -14 -61 -129 l0 -104 -130 0 -130 0 0 95 c0 89 -2 98 -26 121 -19 20
-31 24 -52 19 -44 -10 -52 -30 -52 -137 l0 -99 -62 3 -63 3 0 135 c0 120 3
140 23 177 22 43 68 84 112 102 14 5 125 10 248 10 202 1 226 -1 261 -18z"/>
<path d="M2530 3823 c-41 -14 -40 3 -40 -1035 0 -985 0 -998 20 -1018 19 -19
33 -20 400 -20 367 0 381 1 400 20 20 20 20 33 20 1020 0 987 0 1000 -20 1020
-19 19 -33 20 -392 19 -205 0 -380 -3 -388 -6z m670 -1033 l0 -910 -290 0
-290 0 0 910 0 910 290 0 290 0 0 -910z"/>
<path d="M1344 3206 c-18 -14 -19 -35 -22 -698 -1 -376 0 -693 3 -705 13 -54
6 -53 419 -53 358 0 384 1 399 18 16 17 17 81 17 720 0 624 -2 702 -16 716
-13 14 -64 16 -398 16 -314 0 -386 -3 -402 -14z m686 -721 l0 -605 -290 0
-290 0 0 605 0 605 290 0 290 0 0 -605z"/>
<path d="M176 2774 c-14 -14 -16 -73 -16 -503 0 -460 1 -489 18 -504 17 -15
59 -17 398 -17 313 0 384 3 400 14 18 14 19 33 22 497 2 421 1 485 -13 505
l-15 24 -390 0 c-340 0 -391 -2 -404 -16z m694 -499 l0 -395 -290 0 -290 0 0
395 0 395 290 0 290 0 0 -395z"/>
</g>
</svg>
